<svg width="98" height="108" viewBox="0 0 98 108" fill="none" xmlns="http://www.w3.org/2000/svg">
<path fill-rule="evenodd" clip-rule="evenodd" d="M72.138 84.389C73.6415 84.389 74.8602 85.6077 74.8602 87.1112C74.8602 88.6146 73.6415 89.8334 72.138 89.8334H47.638C47.478 89.8334 47.3212 89.8196 47.1688 89.7931C38.424 89.4074 30.3938 86.2711 23.9222 81.2283C23.3959 80.8182 22.6027 80.1384 22.0148 79.6268C21.512 79.1894 20.8694 78.9445 20.203 78.9445H13.6102C12.1068 78.9445 10.888 77.7257 10.888 76.2223C10.888 74.7189 12.1068 73.5001 13.6102 73.5001H16.3325C17.8359 73.5001 19.0547 72.2813 19.0547 70.7779C19.0547 69.2744 17.8359 68.0556 16.3325 68.0556H9.52691C8.02347 68.0556 6.80469 66.8369 6.80469 65.3334C6.80469 63.83 8.02347 62.6112 9.52691 62.6112H10.888C12.3915 62.6112 13.6102 61.3924 13.6102 59.889C13.6102 58.3855 12.3915 57.1667 10.888 57.1667C9.78728 57.1667 8.84584 56.3733 8.66268 55.2879C8.59614 54.8936 8.54329 54.576 8.53457 54.5114C8.29138 52.709 8.1658 50.8692 8.1658 49.0001C8.1658 26.4485 26.4475 8.16675 48.9991 8.16675C55.8047 8.16675 62.6102 8.16675 69.4158 8.16675C70.9192 8.16675 72.138 9.38553 72.138 10.889C72.138 12.3924 70.9192 13.6112 69.4158 13.6112H65.3325C63.829 13.6112 62.6102 14.83 62.6102 16.3334C62.6102 17.8369 63.829 19.0556 65.3325 19.0556H81.6658C83.1692 19.0556 84.388 20.2744 84.388 21.7779C84.388 23.2803 83.1709 24.4985 81.6688 24.5001H77.5825C76.079 24.5001 74.8602 25.7189 74.8602 27.2223C74.8602 28.7257 76.079 29.9445 77.5825 29.9445H83.4434C84.4729 29.9445 85.4165 30.5242 85.8629 31.4519C86.1311 32.0095 86.4133 32.6109 86.598 33.0456C88.6804 37.9469 89.8325 43.339 89.8325 49.0001C89.8325 50.7788 89.7187 52.531 89.4981 54.2498C89.4611 54.5388 89.4041 54.9097 89.3422 55.2895C89.1645 56.3791 88.2142 57.1667 87.1102 57.1667C85.6068 57.1667 84.388 58.3855 84.388 59.889C84.388 61.3924 85.6068 62.6112 87.1102 62.6112H88.4714C89.9748 62.6112 91.1936 63.83 91.1936 65.3334C91.1936 66.8369 89.9748 68.0556 88.4714 68.0556H86.7239C85.7356 68.0556 84.8269 68.5922 84.3331 69.4483C84.0125 70.0043 83.6559 70.6092 83.391 71.0221C82.7701 71.9897 82.1096 72.9294 81.4115 73.8389C80.7104 74.7524 79.9716 75.6354 79.1973 76.4856C78.7724 76.9521 78.084 77.6433 77.5471 78.1742C77.0448 78.6709 76.3658 78.9445 75.6594 78.9445H68.0547C66.5512 78.9445 65.3325 80.1633 65.3325 81.6667C65.3325 83.1597 66.5343 84.372 68.0233 84.3888L72.138 84.389Z" fill="url(#paint0_linear_1008_9048)"/>
<g opacity="0.1">
<circle cx="48.9991" cy="49.0001" r="29.9444" fill="#50C22B" style="mix-blend-mode:multiply"/>
</g>
<g filter="url(#filter0_d_1008_9048)">
<path fill-rule="evenodd" clip-rule="evenodd" d="M38.1094 49H59.8872V89.3627C59.8872 92.0444 57.0317 93.7608 54.6635 92.5027L48.9983 89.4931L43.333 92.5027C40.9649 93.7608 38.1094 92.0444 38.1094 89.3627V49Z" fill="#265388"/>
</g>
<circle style="mix-blend-mode:multiply" opacity="0.2" cx="48.9996" cy="51.7222" r="27.2222" fill="#62CF3F"/>
<circle cx="48.9996" cy="49.0001" r="27.2222" fill="url(#paint1_linear_1008_9048)"/>
<mask id="mask0_1008_9048" style="mask-type:luminance" maskUnits="userSpaceOnUse" x="21" y="21" width="56" height="56">
<circle cx="48.9996" cy="49.0001" r="27.2222" fill="white"/>
</mask>
<g mask="url(#mask0_1008_9048)">
<path d="M22.457 49C22.457 63.6586 34.3401 75.5417 48.9987 75.5417C63.6573 75.5417 75.5404 63.6586 75.5404 49" stroke="#64788F" stroke-width="3.55556"/>
<g style="mix-blend-mode:multiply" opacity="0.12">
<path d="M66.6953 54.1078L82.692 38.1111" stroke="#78A2A9" stroke-width="7.11111" stroke-linecap="round"/>
</g>
<g style="mix-blend-mode:multiply" opacity="0.12">
<path d="M59.8867 39.1356L75.8834 23.1389" stroke="#78A2A9" stroke-width="7.11111" stroke-linecap="round"/>
</g>
<g style="mix-blend-mode:multiply" opacity="0.12">
<path d="M9.52734 64.9967L25.524 49" stroke="#78A2A9" stroke-width="7.11111" stroke-linecap="round"/>
</g>
<g style="mix-blend-mode:multiply" opacity="0.12">
<path d="M69.418 35.0523L85.4146 19.0557" stroke="#78A2A9" stroke-width="7.11111" stroke-linecap="round"/>
</g>
<g style="mix-blend-mode:multiply" opacity="0.12">
<path d="M19.0547 60.9134L35.0514 44.9167" stroke="#78A2A9" stroke-width="7.11111" stroke-linecap="round"/>
</g>
<g style="mix-blend-mode:multiply" opacity="0.12">
<path d="M42.1953 77.2467L58.192 61.25" stroke="#78A2A9" stroke-width="7.11111" stroke-linecap="round"/>
</g>
<g style="mix-blend-mode:multiply" opacity="0.12">
<path d="M63.9727 67.7188L79.9693 51.7222" stroke="#78A2A9" stroke-width="7.11111" stroke-linecap="round"/>
</g>
<path d="M67.7665 67.768C72.5696 62.9649 75.5404 56.3294 75.5404 49.0002C75.5404 34.3416 63.6573 22.4585 48.9987 22.4585C34.3401 22.4585 22.457 34.3416 22.457 49.0002C22.457 56.3294 25.4278 62.9649 30.2309 67.768" stroke="#8B99AF" stroke-width="3.55556" stroke-linecap="round"/>
<path opacity="0.4" d="M75.5404 49.0002C75.5404 34.3416 63.6573 22.4585 48.9987 22.4585C34.3401 22.4585 22.457 34.3416 22.457 49.0002" stroke="#CCD8EA" stroke-width="3.55556" stroke-linecap="round"/>
<path opacity="0.2" d="M48.995 22.4585C44.0158 22.4585 39.3568 23.8296 35.375 26.2148" stroke="white" stroke-width="3.55556" stroke-linecap="round"/>
<path opacity="0.6" d="M44.2621 22.8811C42.9981 23.1092 41.7653 23.4268 40.5703 23.8271" stroke="white" stroke-width="3.55556" stroke-linecap="round"/>
</g>
<g filter="url(#filter1_d_1008_9048)">
<circle cx="48.9987" cy="48.9999" r="20.4167" fill="url(#paint2_linear_1008_9048)"/>
<circle cx="48.9987" cy="48.9999" r="22.1944" stroke="#64788F" stroke-opacity="0.06" stroke-width="3.55556"/>
</g>
<mask id="mask1_1008_9048" style="mask-type:luminance" maskUnits="userSpaceOnUse" x="28" y="28" width="42" height="42">
<circle cx="48.9987" cy="48.9999" r="20.4167" fill="white"/>
</mask>
<g mask="url(#mask1_1008_9048)">
<g style="mix-blend-mode:multiply" opacity="0.12">
<path d="M59.8828 36.4132L75.8795 20.4165" stroke="#78A2A9" stroke-width="7.11111" stroke-linecap="round"/>
</g>
<g style="mix-blend-mode:multiply" opacity="0.12">
<path d="M9.52344 62.2743L25.5201 46.2776" stroke="#78A2A9" stroke-width="7.11111" stroke-linecap="round"/>
</g>
<g style="mix-blend-mode:multiply" opacity="0.12">
<path d="M69.4141 32.3299L85.4107 16.3333" stroke="#78A2A9" stroke-width="7.11111" stroke-linecap="round"/>
</g>
<g style="mix-blend-mode:multiply" opacity="0.12">
<path d="M19.0508 58.191L35.0475 42.1943" stroke="#78A2A9" stroke-width="7.11111" stroke-linecap="round"/>
</g>
<g style="mix-blend-mode:multiply" opacity="0.12">
<path d="M42.1914 74.5243L58.1881 58.5276" stroke="#78A2A9" stroke-width="7.11111" stroke-linecap="round"/>
</g>
<g style="mix-blend-mode:multiply" opacity="0.12">
<path d="M66.6914 51.3856L82.6881 35.3889" stroke="#78A2A9" stroke-width="7.11111" stroke-linecap="round"/>
</g>
<path opacity="0.6" d="M48.9958 29.2639C46.3199 29.2639 43.7684 29.7965 41.4414 30.7614" stroke="white" stroke-width="3.55556" stroke-linecap="round"/>
</g>
<g filter="url(#filter2_d_1008_9048)">
<path d="M41.1953 49L48.9988 38.967L56.8022 49L48.9988 59.033L41.1953 49Z" fill="white"/>
<path d="M38.3887 46.8171C37.3901 48.1011 37.3901 49.899 38.3887 51.1829L46.1922 61.2159C46.8658 62.082 47.9015 62.5886 48.9988 62.5886C50.096 62.5886 51.1317 62.082 51.8053 61.2159L59.6088 51.1829C60.6074 49.899 60.6074 48.1011 59.6088 46.8171L51.8053 36.7841C51.1317 35.9181 50.096 35.4115 48.9988 35.4115C47.9015 35.4115 46.8658 35.9181 46.1922 36.7841L38.3887 46.8171Z" stroke="white" stroke-width="7.11111" stroke-linejoin="round"/>
</g>
<g filter="url(#filter3_i_1008_9048)">
<path d="M41.1953 49L48.9988 38.967L56.8022 49L48.9988 59.033L41.1953 49Z" fill="url(#paint3_linear_1008_9048)"/>
</g>
<defs>
<filter id="filter0_d_1008_9048" x="30.9983" y="49" width="35.9996" height="58.1453" filterUnits="userSpaceOnUse" color-interpolation-filters="sRGB">
<feFlood flood-opacity="0" result="BackgroundImageFix"/>
<feColorMatrix in="SourceAlpha" type="matrix" values="0 0 0 0 0 0 0 0 0 0 0 0 0 0 0 0 0 0 127 0" result="hardAlpha"/>
<feOffset dy="7.11111"/>
<feGaussianBlur stdDeviation="3.55556"/>
<feColorMatrix type="matrix" values="0 0 0 0 0.603922 0 0 0 0 0.713726 0 0 0 0 0.356863 0 0 0 0.2 0"/>
<feBlend mode="darken" in2="BackgroundImageFix" result="effect1_dropShadow_1008_9048"/>
<feBlend mode="normal" in="SourceGraphic" in2="effect1_dropShadow_1008_9048" result="shape"/>
</filter>
<filter id="filter1_d_1008_9048" x="10.8051" y="14.3609" width="76.3898" height="76.389" filterUnits="userSpaceOnUse" color-interpolation-filters="sRGB">
<feFlood flood-opacity="0" result="BackgroundImageFix"/>
<feColorMatrix in="SourceAlpha" type="matrix" values="0 0 0 0 0 0 0 0 0 0 0 0 0 0 0 0 0 0 127 0" result="hardAlpha"/>
<feOffset dy="3.55556"/>
<feGaussianBlur stdDeviation="7.11111"/>
<feColorMatrix type="matrix" values="0 0 0 0 0.279884 0 0 0 0 0.409586 0 0 0 0 0.470833 0 0 0 0.2 0"/>
<feBlend mode="normal" in2="BackgroundImageFix" result="effect1_dropShadow_1008_9048"/>
<feBlend mode="normal" in="SourceGraphic" in2="effect1_dropShadow_1008_9048" result="shape"/>
</filter>
<filter id="filter2_d_1008_9048" x="26.9748" y="28.3004" width="44.0503" height="48.5103" filterUnits="userSpaceOnUse" color-interpolation-filters="sRGB">
<feFlood flood-opacity="0" result="BackgroundImageFix"/>
<feColorMatrix in="SourceAlpha" type="matrix" values="0 0 0 0 0 0 0 0 0 0 0 0 0 0 0 0 0 0 127 0" result="hardAlpha"/>
<feOffset dy="3.55556"/>
<feGaussianBlur stdDeviation="3.55556"/>
<feColorMatrix type="matrix" values="0 0 0 0 0.19669 0 0 0 0 0.27695 0 0 0 0 0.483333 0 0 0 0.2 0"/>
<feBlend mode="normal" in2="BackgroundImageFix" result="effect1_dropShadow_1008_9048"/>
<feBlend mode="normal" in="SourceGraphic" in2="effect1_dropShadow_1008_9048" result="shape"/>
</filter>
<filter id="filter3_i_1008_9048" x="41.1953" y="38.967" width="15.6055" height="23.6215" filterUnits="userSpaceOnUse" color-interpolation-filters="sRGB">
<feFlood flood-opacity="0" result="BackgroundImageFix"/>
<feBlend mode="normal" in="SourceGraphic" in2="BackgroundImageFix" result="shape"/>
<feColorMatrix in="SourceAlpha" type="matrix" values="0 0 0 0 0 0 0 0 0 0 0 0 0 0 0 0 0 0 127 0" result="hardAlpha"/>
<feOffset dy="3.55556"/>
<feGaussianBlur stdDeviation="1.77778"/>
<feComposite in2="hardAlpha" operator="arithmetic" k2="-1" k3="1"/>
<feColorMatrix type="matrix" values="0 0 0 0 0.324977 0 0 0 0 0.428027 0 0 0 0 0.579167 0 0 0 0.4 0"/>
<feBlend mode="normal" in2="shape" result="effect1_innerShadow_1008_9048"/>
</filter>
<linearGradient id="paint0_linear_1008_9048" x1="6.80469" y1="8.16675" x2="6.80469" y2="89.8334" gradientUnits="userSpaceOnUse">
<stop stop-color="#D9E242"/>
<stop offset="1" stop-color="#84C400"/>
</linearGradient>
<linearGradient id="paint1_linear_1008_9048" x1="21.7773" y1="21.7778" x2="21.7773" y2="76.2223" gradientUnits="userSpaceOnUse">
<stop stop-color="#ABB7CC"/>
<stop offset="1" stop-color="#76879C"/>
</linearGradient>
<linearGradient id="paint2_linear_1008_9048" x1="28.582" y1="28.5833" x2="28.582" y2="69.4166" gradientUnits="userSpaceOnUse">
<stop stop-color="#C6D1E4"/>
<stop offset="1" stop-color="#A4B1C4"/>
</linearGradient>
<linearGradient id="paint3_linear_1008_9048" x1="41.1953" y1="38.967" x2="41.1953" y2="59.033" gradientUnits="userSpaceOnUse">
<stop stop-color="#A3B0C5"/>
<stop offset="1" stop-color="#7A8AA1"/>
</linearGradient>
</defs>
</svg>
