<svg width="98" height="108" viewBox="0 0 98 108" fill="none" xmlns="http://www.w3.org/2000/svg">
<path fill-rule="evenodd" clip-rule="evenodd" d="M72.138 84.389C73.6415 84.389 74.8602 85.6077 74.8602 87.1112C74.8602 88.6146 73.6415 89.8334 72.138 89.8334H47.638C47.478 89.8334 47.3212 89.8196 47.1688 89.7931C38.424 89.4074 30.3938 86.2711 23.9222 81.2283C23.3959 80.8182 22.6027 80.1384 22.0148 79.6268C21.512 79.1894 20.8694 78.9445 20.203 78.9445H13.6102C12.1068 78.9445 10.888 77.7257 10.888 76.2223C10.888 74.7189 12.1068 73.5001 13.6102 73.5001H16.3325C17.8359 73.5001 19.0547 72.2813 19.0547 70.7779C19.0547 69.2744 17.8359 68.0556 16.3325 68.0556H9.52691C8.02347 68.0556 6.80469 66.8369 6.80469 65.3334C6.80469 63.83 8.02347 62.6112 9.52691 62.6112H10.888C12.3915 62.6112 13.6102 61.3924 13.6102 59.889C13.6102 58.3855 12.3915 57.1667 10.888 57.1667C9.78728 57.1667 8.84584 56.3733 8.66268 55.2879C8.59614 54.8936 8.54329 54.576 8.53457 54.5114C8.29138 52.709 8.1658 50.8692 8.1658 49.0001C8.1658 26.4485 26.4475 8.16675 48.9991 8.16675C55.8047 8.16675 62.6102 8.16675 69.4158 8.16675C70.9192 8.16675 72.138 9.38553 72.138 10.889C72.138 12.3924 70.9192 13.6112 69.4158 13.6112H65.3325C63.829 13.6112 62.6102 14.83 62.6102 16.3334C62.6102 17.8369 63.829 19.0556 65.3325 19.0556H81.6658C83.1692 19.0556 84.388 20.2744 84.388 21.7779C84.388 23.2803 83.1709 24.4985 81.6688 24.5001L77.5825 24.5001C76.079 24.5001 74.8602 25.7189 74.8602 27.2223C74.8602 28.7257 76.079 29.9445 77.5825 29.9445H83.4434C84.4729 29.9445 85.4165 30.5242 85.8629 31.4519C86.1312 32.0095 86.4133 32.6109 86.598 33.0456C88.6804 37.9469 89.8325 43.339 89.8325 49.0001C89.8325 50.7788 89.7187 52.531 89.4981 54.2498C89.4611 54.5388 89.4041 54.9097 89.3422 55.2895C89.1645 56.3791 88.2142 57.1667 87.1102 57.1667C85.6068 57.1667 84.388 58.3855 84.388 59.889C84.388 61.3924 85.6068 62.6112 87.1102 62.6112H88.4714C89.9748 62.6112 91.1936 63.83 91.1936 65.3334C91.1936 66.8369 89.9748 68.0556 88.4714 68.0556H86.7239C85.7356 68.0556 84.8269 68.5922 84.3331 69.4483C84.0124 70.0043 83.6559 70.6092 83.391 71.0221C82.7701 71.9897 82.1095 72.9294 81.4115 73.8389C80.7104 74.7524 79.9716 75.6354 79.1973 76.4856C78.7724 76.9521 78.084 77.6433 77.5471 78.1742C77.0448 78.6709 76.3658 78.9445 75.6594 78.9445H68.0547C66.5512 78.9445 65.3325 80.1633 65.3325 81.6667C65.3325 83.1597 66.5343 84.372 68.0233 84.3888L72.138 84.389Z" fill="url(#paint0_linear_1008_9061)"/>
<g opacity="0.1">
<circle cx="48.9991" cy="49.0001" r="29.9444" fill="#F3A02A" style="mix-blend-mode:multiply"/>
</g>
<g filter="url(#filter0_d_1008_9061)">
<path fill-rule="evenodd" clip-rule="evenodd" d="M38.1094 49H59.8872V89.3627C59.8872 92.0444 57.0317 93.7608 54.6635 92.5027L48.9983 89.4931L43.333 92.5027C40.9649 93.7608 38.1094 92.0444 38.1094 89.3627V49Z" fill="#F56123"/>
</g>
<circle style="mix-blend-mode:multiply" opacity="0.2" cx="48.9996" cy="51.7222" r="27.2222" fill="#F0BA6E"/>
<g filter="url(#filter1_d_1008_9061)">
<circle cx="48.9996" cy="49.0001" r="27.2222" fill="url(#paint1_linear_1008_9061)"/>
</g>
<mask id="mask0_1008_9061" style="mask-type:luminance" maskUnits="userSpaceOnUse" x="21" y="21" width="56" height="56">
<circle cx="48.9996" cy="49.0001" r="27.2222" fill="white"/>
</mask>
<g mask="url(#mask0_1008_9061)">
<path d="M22.457 48.9999C22.457 63.6585 34.3401 75.5416 48.9987 75.5416C63.6573 75.5416 75.5404 63.6585 75.5404 48.9999" stroke="#DA913B" stroke-width="3.55556"/>
<path d="M67.7617 67.7683C72.5648 62.9652 75.5356 56.3298 75.5356 49.0005C75.5356 45.0067 74.6535 41.2189 73.0734 37.8213" stroke="#E1A04B" stroke-width="3.55556" stroke-linecap="round"/>
<path d="M69.9532 32.708C65.0966 26.4706 57.5162 22.4585 48.9987 22.4585C34.3401 22.4585 22.457 34.3416 22.457 49.0002C22.457 56.3294 25.4278 62.9649 30.2309 67.768" stroke="#E1A04B" stroke-width="3.55556" stroke-linecap="round"/>
<path opacity="0.6" d="M69.9624 32.7169C65.1061 26.4744 57.5225 22.4585 49.001 22.4585C40.431 22.4585 32.8097 26.5202 27.957 32.8236" stroke="#FFC875" stroke-width="3.55556" stroke-linecap="round"/>
<path opacity="0.8" d="M48.995 22.4585C44.0158 22.4585 39.3568 23.8296 35.375 26.2148" stroke="#FFECD0" stroke-width="3.55556" stroke-linecap="round"/>
<g style="mix-blend-mode:multiply" opacity="0.2">
<rect x="54.2227" y="58.3506" width="9.22222" height="43.25" rx="4.61111" transform="rotate(45 54.2227 58.3506)" stroke="#EBB570" stroke-width="7.11111"/>
</g>
<g style="mix-blend-mode:multiply" opacity="0.2">
<path d="M53.746 65.5264L27.4196 91.8528C27.3074 91.965 27.1256 91.965 27.0135 91.8529C26.9013 91.7407 26.9013 91.5589 27.0135 91.4467L53.3399 65.1203C53.4521 65.0081 53.6339 65.0081 53.746 65.1203C53.8582 65.2324 53.8582 65.4143 53.746 65.5264Z" stroke="#EBB570" stroke-width="7.11111"/>
</g>
<g style="mix-blend-mode:multiply" opacity="0.2">
<path d="M21.9779 60.5355L15.6152 66.8982C9.99025 72.5232 0.87033 72.5232 -4.75465 66.8982C-10.3796 61.2732 -10.3796 52.1533 -4.75465 46.5283L1.60802 40.1657C7.23301 34.5407 16.3529 34.5407 21.9779 40.1657C27.6029 45.7906 27.6029 54.9105 21.9779 60.5355Z" stroke="#EBB570" stroke-width="7.11111"/>
</g>
<g style="mix-blend-mode:multiply" opacity="0.2">
<rect x="73.2773" y="14.7949" width="9.22222" height="43.25" rx="4.61111" transform="rotate(45 73.2773 14.7949)" stroke="#EBB570" stroke-width="7.11111"/>
</g>
<g style="mix-blend-mode:multiply" opacity="0.2">
<path d="M76.5351 18.4622L46.3588 48.6384C46.2467 48.7506 46.0649 48.7506 45.9527 48.6384C45.8406 48.5263 45.8406 48.3445 45.9527 48.2323L76.129 18.0561C76.2411 17.9439 76.4229 17.9439 76.5351 18.0561C76.6472 18.1682 76.6472 18.35 76.5351 18.4622Z" stroke="#EBB570" stroke-width="7.11111"/>
</g>
</g>
<g filter="url(#filter2_d_1008_9061)">
<circle cx="48.9987" cy="48.9999" r="20.4167" fill="url(#paint2_linear_1008_9061)"/>
<circle cx="48.9987" cy="48.9999" r="22.1944" stroke="#D78834" stroke-opacity="0.06" stroke-width="3.55556"/>
</g>
<mask id="mask1_1008_9061" style="mask-type:luminance" maskUnits="userSpaceOnUse" x="28" y="28" width="42" height="42">
<circle cx="48.9987" cy="48.9999" r="20.4167" fill="white"/>
</mask>
<g mask="url(#mask1_1008_9061)">
<g style="mix-blend-mode:multiply" opacity="0.2">
<path d="M24.7006 60.5363L18.3379 66.8989C12.7129 72.5239 3.59299 72.5239 -2.032 66.8989C-7.65698 61.274 -7.65698 52.154 -2.032 46.5291L4.33068 40.1664C9.95567 34.5414 19.0756 34.5414 24.7006 40.1664C30.3256 45.7914 30.3256 54.9113 24.7006 60.5363Z" stroke="#EBB570" stroke-width="7.11111"/>
</g>
<g style="mix-blend-mode:multiply" opacity="0.2">
<rect x="76.4453" y="5.02831" width="9.22222" height="43.25" rx="4.61111" transform="rotate(45 76.4453 5.02831)" stroke="#EBB570" stroke-width="7.11111"/>
</g>
<g style="mix-blend-mode:multiply" opacity="0.2">
<rect x="55.5859" y="55.6289" width="9.22222" height="43.25" rx="4.61111" transform="rotate(45 55.5859 55.6289)" stroke="#EBB570" stroke-width="7.11111"/>
</g>
<g style="mix-blend-mode:multiply" opacity="0.2">
<path d="M79.6054 8.35965L53.2789 34.6861C53.1668 34.7982 52.985 34.7982 52.8728 34.6861C52.7607 34.574 52.7607 34.3921 52.8728 34.28L79.1993 7.95354C79.3114 7.84139 79.4933 7.8414 79.6054 7.95354C79.7175 8.06568 79.7175 8.24751 79.6054 8.35965Z" stroke="#EBB570" stroke-width="7.11111"/>
</g>
<g style="mix-blend-mode:multiply" opacity="0.2">
<path d="M54.664 63.0437L28.3375 89.3702C28.2254 89.4823 28.0436 89.4823 27.9314 89.3702C27.8193 89.258 27.8193 89.0762 27.9314 88.9641L54.2579 62.6376C54.37 62.5255 54.5519 62.5255 54.664 62.6376C54.7761 62.7498 54.7761 62.9316 54.664 63.0437Z" stroke="#EBB570" stroke-width="7.11111"/>
</g>
<path opacity="0.8" d="M48.9958 29.2639C46.3199 29.2639 43.7684 29.7965 41.4414 30.7614" stroke="#FFECD0" stroke-width="3.55556" stroke-linecap="round"/>
</g>
<g filter="url(#filter3_d_1008_9061)">
<mask id="path-26-outside-1_1008_9061" maskUnits="userSpaceOnUse" x="34.1133" y="31.3889" width="30" height="31" fill="black">
<rect fill="white" x="34.1133" y="31.3889" width="30" height="31"/>
<path fill-rule="evenodd" clip-rule="evenodd" d="M55.1272 35.3889C55.1272 35.3889 53.7661 35.3889 51.7244 36.75C50.4239 37.617 49.6757 38.7601 49.3038 39.4758C49.2036 39.4735 49.103 39.4722 49.0022 39.4722C42.9884 39.4722 38.1133 43.738 38.1133 49C38.1133 54.2621 42.9884 58.5278 49.0022 58.5278C55.0159 58.5278 59.8911 54.2621 59.8911 49C59.8911 45.7796 58.0651 42.9324 55.2696 41.2078C55.2443 41.0984 55.1975 40.9741 55.1272 40.8334C53.7661 38.1111 55.1272 35.3889 55.1272 35.3889Z"/>
</mask>
<path fill-rule="evenodd" clip-rule="evenodd" d="M55.1272 35.3889C55.1272 35.3889 53.7661 35.3889 51.7244 36.75C50.4239 37.617 49.6757 38.7601 49.3038 39.4758C49.2036 39.4735 49.103 39.4722 49.0022 39.4722C42.9884 39.4722 38.1133 43.738 38.1133 49C38.1133 54.2621 42.9884 58.5278 49.0022 58.5278C55.0159 58.5278 59.8911 54.2621 59.8911 49C59.8911 45.7796 58.0651 42.9324 55.2696 41.2078C55.2443 41.0984 55.1975 40.9741 55.1272 40.8334C53.7661 38.1111 55.1272 35.3889 55.1272 35.3889Z" fill="white"/>
<path d="M51.7244 36.75L53.6967 39.7084L53.6967 39.7084L51.7244 36.75ZM55.1272 35.3889L58.3074 36.979C58.8584 35.8768 58.7996 34.5679 58.1517 33.5197C57.5039 32.4714 56.3594 31.8334 55.1272 31.8334V35.3889ZM49.3038 39.4758L49.2192 43.0304C50.5761 43.0627 51.8331 42.3196 52.4589 41.1152L49.3038 39.4758ZM55.2696 41.2078L51.8058 42.0105C52.0201 42.935 52.5951 43.7355 53.4027 44.2338L55.2696 41.2078ZM55.1272 40.8334L51.947 42.4235L51.947 42.4235L55.1272 40.8334ZM53.6967 39.7084C54.4085 39.2339 54.9229 39.0479 55.1682 38.9778C55.2934 38.942 55.3576 38.9339 55.3525 38.9345C55.3501 38.9349 55.3309 38.9373 55.2936 38.9398C55.275 38.941 55.2519 38.9421 55.2242 38.943C55.2104 38.9435 55.1954 38.9438 55.1792 38.9441C55.1711 38.9442 55.1627 38.9443 55.1541 38.9444C55.1497 38.9444 55.1453 38.9444 55.1408 38.9444C55.1386 38.9445 55.1363 38.9445 55.1341 38.9445C55.1329 38.9445 55.1312 38.9445 55.1306 38.9445C55.1289 38.9445 55.1272 38.9445 55.1272 35.3889C55.1272 31.8334 55.1254 31.8334 55.1237 31.8334C55.1231 31.8334 55.1213 31.8334 55.1202 31.8334C55.1178 31.8334 55.1154 31.8334 55.113 31.8334C55.1082 31.8334 55.1033 31.8334 55.0983 31.8335C55.0883 31.8336 55.0779 31.8337 55.0672 31.8338C55.0458 31.8342 55.0229 31.8347 54.9986 31.8355C54.9499 31.837 54.8956 31.8395 54.8358 31.8434C54.7161 31.8511 54.5745 31.8642 54.4127 31.8858C54.0886 31.929 53.6849 32.0059 53.2146 32.1403C52.2689 32.4105 51.0819 32.9051 49.7521 33.7916L53.6967 39.7084ZM52.4589 41.1152C52.6638 40.7207 53.0618 40.1317 53.6967 39.7084L49.7521 33.7916C47.786 35.1023 46.6875 36.7995 46.1487 37.8365L52.4589 41.1152ZM49.0022 43.0278C49.0748 43.0278 49.1471 43.0287 49.2192 43.0304L49.3884 35.9213C49.26 35.9182 49.1313 35.9167 49.0022 35.9167V43.0278ZM41.6688 49C41.6688 46.1328 44.4913 43.0278 49.0022 43.0278V35.9167C41.4855 35.9167 34.5577 41.3432 34.5577 49H41.6688ZM49.0022 54.9722C44.4913 54.9722 41.6688 51.8673 41.6688 49H34.5577C34.5577 56.6569 41.4855 62.0834 49.0022 62.0834V54.9722ZM56.3355 49C56.3355 51.8673 53.5131 54.9722 49.0022 54.9722V62.0834C56.5188 62.0834 63.4466 56.6569 63.4466 49H56.3355ZM53.4027 44.2338C55.3193 45.4162 56.3355 47.201 56.3355 49H63.4466C63.4466 44.3582 60.8108 40.4486 57.1364 38.1817L53.4027 44.2338ZM51.947 42.4235C51.9305 42.3905 51.8605 42.2464 51.8058 42.0105L58.7333 40.405C58.628 39.9505 58.4646 39.5577 58.3074 39.2433L51.947 42.4235ZM55.1272 35.3889C51.947 33.7988 51.9464 33.8001 51.9457 33.8013C51.9455 33.8018 51.9449 33.8031 51.9444 33.8039C51.9436 33.8057 51.9427 33.8075 51.9418 33.8093C51.9399 33.813 51.938 33.8169 51.936 33.8209C51.932 33.829 51.9277 33.8379 51.9231 33.8475C51.9138 33.8666 51.9032 33.8888 51.8916 33.9137C51.8682 33.9636 51.8403 34.0251 51.8089 34.0975C51.7463 34.2419 51.6692 34.4317 51.5873 34.6609C51.425 35.1154 51.2359 35.7475 51.1096 36.5058C50.8596 38.0055 50.8283 40.1861 51.947 42.4235L58.3074 39.2433C58.0649 38.7584 58.0336 38.2167 58.1239 37.6748C58.1677 37.4122 58.2338 37.1937 58.2842 37.0527C58.3086 36.9842 58.3272 36.94 58.3338 36.9249C58.337 36.9176 58.3369 36.9179 58.3329 36.9266C58.3308 36.9309 58.3278 36.9374 58.3236 36.9461C58.3214 36.9505 58.3191 36.9554 58.3164 36.9609C58.315 36.9636 58.3136 36.9665 58.3121 36.9695C58.3113 36.971 58.3106 36.9726 58.3098 36.9741C58.3094 36.9749 58.3088 36.9762 58.3086 36.9766C58.308 36.9778 58.3074 36.979 55.1272 35.3889Z" fill="white" mask="url(#path-26-outside-1_1008_9061)"/>
</g>
<g filter="url(#filter4_i_1008_9061)">
<path fill-rule="evenodd" clip-rule="evenodd" d="M55.1272 35.3889C55.1272 35.3889 53.7661 35.3889 51.7244 36.75C50.4239 37.617 49.6757 38.7601 49.3038 39.4758C49.2036 39.4735 49.103 39.4722 49.0022 39.4722C42.9884 39.4722 38.1133 43.738 38.1133 49C38.1133 54.2621 42.9884 58.5278 49.0022 58.5278C55.0159 58.5278 59.8911 54.2621 59.8911 49C59.8911 45.928 58.2294 43.1955 55.6497 41.4532C55.4228 41.2367 55.2166 41.0122 55.1272 40.8334C53.7661 38.1111 55.1272 35.3889 55.1272 35.3889Z" fill="url(#paint3_linear_1008_9061)"/>
</g>
<path d="M51.7244 36.75L49.7521 33.7916L49.7521 33.7916L51.7244 36.75ZM55.1272 35.3889L58.3074 36.979C58.8584 35.8768 58.7996 34.5679 58.1517 33.5196C57.5039 32.4714 56.3594 31.8334 55.1272 31.8334V35.3889ZM49.3038 39.4758L49.2192 43.0304C50.5761 43.0627 51.8331 42.3196 52.4589 41.1152L49.3038 39.4758ZM55.6497 41.4532L53.1952 44.0256C53.3393 44.1631 53.4946 44.2882 53.6597 44.3997L55.6497 41.4532ZM55.1272 40.8334L51.947 42.4235L51.947 42.4235L55.1272 40.8334ZM53.6967 39.7084C54.4085 39.2339 54.9229 39.0479 55.1682 38.9778C55.2934 38.942 55.3576 38.9339 55.3525 38.9345C55.3501 38.9349 55.3309 38.9373 55.2936 38.9398C55.275 38.941 55.2519 38.9421 55.2242 38.943C55.2104 38.9435 55.1954 38.9438 55.1792 38.9441C55.1711 38.9442 55.1627 38.9443 55.1541 38.9444C55.1497 38.9444 55.1453 38.9444 55.1408 38.9444C55.1386 38.9445 55.1363 38.9445 55.1341 38.9445C55.1329 38.9445 55.1312 38.9445 55.1306 38.9445C55.1289 38.9445 55.1272 38.9445 55.1272 35.3889C55.1272 31.8334 55.1254 31.8334 55.1237 31.8334C55.1231 31.8334 55.1213 31.8334 55.1202 31.8334C55.1178 31.8334 55.1154 31.8334 55.113 31.8334C55.1082 31.8334 55.1033 31.8334 55.0983 31.8335C55.0883 31.8336 55.0779 31.8337 55.0672 31.8338C55.0458 31.8342 55.0229 31.8347 54.9986 31.8355C54.9499 31.837 54.8956 31.8395 54.8358 31.8434C54.7161 31.8511 54.5745 31.8642 54.4127 31.8858C54.0886 31.929 53.6849 32.0059 53.2146 32.1403C52.2689 32.4105 51.0819 32.9051 49.7521 33.7916L53.6967 39.7084ZM52.4589 41.1152C52.6638 40.7207 53.0618 40.1317 53.6967 39.7084L49.7521 33.7916C47.786 35.1023 46.6875 36.7995 46.1487 37.8365L52.4589 41.1152ZM49.0022 43.0278C49.0748 43.0278 49.1471 43.0287 49.2192 43.0304L49.3884 35.9213C49.26 35.9182 49.1313 35.9167 49.0022 35.9167V43.0278ZM41.6688 49C41.6688 46.1328 44.4913 43.0278 49.0022 43.0278V35.9167C41.4855 35.9167 34.5577 41.3432 34.5577 49H41.6688ZM49.0022 54.9722C44.4913 54.9722 41.6688 51.8673 41.6688 49H34.5577C34.5577 56.6569 41.4855 62.0834 49.0022 62.0834V54.9722ZM56.3355 49C56.3355 51.8673 53.5131 54.9722 49.0022 54.9722V62.0834C56.5188 62.0834 63.4466 56.6569 63.4466 49H56.3355ZM53.6597 44.3997C55.4113 45.5827 56.3355 47.2803 56.3355 49H63.4466C63.4466 44.5757 61.0475 40.8083 57.6397 38.5067L53.6597 44.3997ZM51.947 42.4235C52.3473 43.2242 52.9925 43.8322 53.1952 44.0256L58.1042 38.8807C58.0379 38.8175 58.018 38.7938 58.0285 38.806C58.0354 38.814 58.0649 38.8485 58.1068 38.9071C58.1454 38.9611 58.2236 39.0758 58.3073 39.2433L51.947 42.4235ZM55.1272 35.3889C51.947 33.7988 51.9464 33.8001 51.9457 33.8013C51.9455 33.8018 51.9449 33.8031 51.9444 33.8039C51.9436 33.8057 51.9427 33.8075 51.9418 33.8093C51.9399 33.813 51.938 33.8169 51.936 33.8209C51.932 33.829 51.9277 33.8379 51.9231 33.8475C51.9138 33.8666 51.9032 33.8888 51.8916 33.9137C51.8682 33.9636 51.8403 34.0251 51.8089 34.0975C51.7463 34.2419 51.6692 34.4317 51.5873 34.6609C51.425 35.1154 51.2359 35.7475 51.1096 36.5058C50.8596 38.0055 50.8283 40.1861 51.947 42.4235L58.3074 39.2433C58.0649 38.7584 58.0336 38.2167 58.1239 37.6748C58.1677 37.4122 58.2338 37.1937 58.2842 37.0527C58.3086 36.9842 58.3272 36.94 58.3338 36.9249C58.337 36.9176 58.3369 36.9179 58.3329 36.9266C58.3308 36.9309 58.3278 36.9374 58.3236 36.9461C58.3214 36.9505 58.3191 36.9554 58.3164 36.9609C58.315 36.9636 58.3136 36.9665 58.3121 36.9695C58.3113 36.971 58.3106 36.9726 58.3098 36.9741C58.3094 36.9749 58.3088 36.9762 58.3086 36.9766C58.308 36.9778 58.3074 36.979 55.1272 35.3889Z" fill="#FFECD0"/>
<circle cx="45.2561" cy="47.9792" r="1.70139" fill="#FFECD0"/>
<circle cx="52.7444" cy="47.9792" r="1.70139" fill="#FFECD0"/>
<defs>
<filter id="filter0_d_1008_9061" x="30.9983" y="49" width="35.9996" height="58.1453" filterUnits="userSpaceOnUse" color-interpolation-filters="sRGB">
<feFlood flood-opacity="0" result="BackgroundImageFix"/>
<feColorMatrix in="SourceAlpha" type="matrix" values="0 0 0 0 0 0 0 0 0 0 0 0 0 0 0 0 0 0 127 0" result="hardAlpha"/>
<feOffset dy="7.11111"/>
<feGaussianBlur stdDeviation="3.55556"/>
<feColorMatrix type="matrix" values="0 0 0 0 0.937255 0 0 0 0 0.67451 0 0 0 0 0.235294 0 0 0 0.2 0"/>
<feBlend mode="darken" in2="BackgroundImageFix" result="effect1_dropShadow_1008_9061"/>
<feBlend mode="normal" in="SourceGraphic" in2="effect1_dropShadow_1008_9061" result="shape"/>
</filter>
<filter id="filter1_d_1008_9061" x="7.55512" y="14.6667" width="82.8898" height="82.8888" filterUnits="userSpaceOnUse" color-interpolation-filters="sRGB">
<feFlood flood-opacity="0" result="BackgroundImageFix"/>
<feColorMatrix in="SourceAlpha" type="matrix" values="0 0 0 0 0 0 0 0 0 0 0 0 0 0 0 0 0 0 127 0" result="hardAlpha"/>
<feOffset dy="7.11111"/>
<feGaussianBlur stdDeviation="7.11111"/>
<feColorMatrix type="matrix" values="0 0 0 0 0.752941 0 0 0 0 0.266667 0 0 0 0 0.266667 0 0 0 0.2 0"/>
<feBlend mode="normal" in2="BackgroundImageFix" result="effect1_dropShadow_1008_9061"/>
<feBlend mode="normal" in="SourceGraphic" in2="effect1_dropShadow_1008_9061" result="shape"/>
</filter>
<filter id="filter2_d_1008_9061" x="17.9162" y="21.472" width="62.1675" height="62.1668" filterUnits="userSpaceOnUse" color-interpolation-filters="sRGB">
<feFlood flood-opacity="0" result="BackgroundImageFix"/>
<feColorMatrix in="SourceAlpha" type="matrix" values="0 0 0 0 0 0 0 0 0 0 0 0 0 0 0 0 0 0 127 0" result="hardAlpha"/>
<feOffset dy="3.55556"/>
<feGaussianBlur stdDeviation="3.55556"/>
<feColorMatrix type="matrix" values="0 0 0 0 0.643137 0 0 0 0 0.301509 0 0 0 0 0.0196078 0 0 0 0.2 0"/>
<feBlend mode="normal" in2="BackgroundImageFix" result="effect1_dropShadow_1008_9061"/>
<feBlend mode="normal" in="SourceGraphic" in2="effect1_dropShadow_1008_9061" result="shape"/>
</filter>
<filter id="filter3_d_1008_9061" x="27.4475" y="28.2777" width="43.1089" height="44.4722" filterUnits="userSpaceOnUse" color-interpolation-filters="sRGB">
<feFlood flood-opacity="0" result="BackgroundImageFix"/>
<feColorMatrix in="SourceAlpha" type="matrix" values="0 0 0 0 0 0 0 0 0 0 0 0 0 0 0 0 0 0 127 0" result="hardAlpha"/>
<feOffset dy="3.55556"/>
<feGaussianBlur stdDeviation="3.55556"/>
<feColorMatrix type="matrix" values="0 0 0 0 0.625 0 0 0 0 0.409034 0 0 0 0 0.12934 0 0 0 0.22 0"/>
<feBlend mode="normal" in2="BackgroundImageFix" result="effect1_dropShadow_1008_9061"/>
<feBlend mode="normal" in="SourceGraphic" in2="effect1_dropShadow_1008_9061" result="shape"/>
</filter>
<filter id="filter4_i_1008_9061" x="34.5586" y="31.8333" width="28.8867" height="33.8056" filterUnits="userSpaceOnUse" color-interpolation-filters="sRGB">
<feFlood flood-opacity="0" result="BackgroundImageFix"/>
<feBlend mode="normal" in="SourceGraphic" in2="BackgroundImageFix" result="shape"/>
<feColorMatrix in="SourceAlpha" type="matrix" values="0 0 0 0 0 0 0 0 0 0 0 0 0 0 0 0 0 0 127 0" result="hardAlpha"/>
<feOffset dy="3.55556"/>
<feGaussianBlur stdDeviation="1.77778"/>
<feComposite in2="hardAlpha" operator="arithmetic" k2="-1" k3="1"/>
<feColorMatrix type="matrix" values="0 0 0 0 0.801791 0 0 0 0 0.623822 0 0 0 0 0.41026 0 0 0 1 0"/>
<feBlend mode="normal" in2="shape" result="effect1_innerShadow_1008_9061"/>
</filter>
<linearGradient id="paint0_linear_1008_9061" x1="6.80469" y1="8.16675" x2="6.80469" y2="89.8334" gradientUnits="userSpaceOnUse">
<stop stop-color="#FFDD72"/>
<stop offset="1" stop-color="#FFC32B"/>
</linearGradient>
<linearGradient id="paint1_linear_1008_9061" x1="21.7773" y1="21.7778" x2="21.7773" y2="76.2223" gradientUnits="userSpaceOnUse">
<stop stop-color="#F9C685"/>
<stop offset="1" stop-color="#DB963B"/>
</linearGradient>
<linearGradient id="paint2_linear_1008_9061" x1="28.582" y1="28.5833" x2="28.582" y2="69.4166" gradientUnits="userSpaceOnUse">
<stop stop-color="#FDDA9D"/>
<stop offset="1" stop-color="#EFB35E"/>
</linearGradient>
<linearGradient id="paint3_linear_1008_9061" x1="38.1133" y1="35.3889" x2="38.1133" y2="58.5278" gradientUnits="userSpaceOnUse">
<stop stop-color="#F6C280"/>
<stop offset="1" stop-color="#E2A65E"/>
</linearGradient>
</defs>
</svg>
