<svg width="46" height="46" viewBox="0 0 46 46" fill="none" xmlns="http://www.w3.org/2000/svg">
<path fill-rule="evenodd" clip-rule="evenodd" d="M31.382 9.08041C31.382 13.3373 34.838 16.7882 39.1011 16.7882C39.5705 16.7859 40.0388 16.7408 40.5 16.6536V31.9346C40.5 38.3633 36.7079 42.1667 30.2697 42.1667H16.2472C9.79214 42.1667 6 38.3633 6 31.9346V17.9326C6 11.5038 9.79214 7.66675 16.2472 7.66675H31.5169C31.4262 8.13251 31.3811 8.60594 31.382 9.08041ZM27.3708 28.5519L32.8483 21.4836V21.4499C33.3172 20.8198 33.1976 19.9313 32.5787 19.4472C32.2791 19.216 31.8984 19.1159 31.5236 19.1698C31.1488 19.2237 30.8119 19.427 30.5899 19.7333L25.9719 25.6741L20.7135 21.5341C20.4133 21.3002 20.0314 21.1969 19.654 21.2476C19.2766 21.2982 18.9356 21.4986 18.7079 21.8033L13.0449 29.1072C12.8459 29.3553 12.7387 29.6645 12.7416 29.9824C12.7087 30.6248 13.1144 31.2085 13.7287 31.4024C14.343 31.5963 15.011 31.3516 15.3539 30.807L20.0899 24.6811L25.3483 28.8043C25.6474 29.0454 26.0318 29.1547 26.4133 29.1071C26.7947 29.0595 27.1403 28.8591 27.3708 28.5519Z" fill="#768192"/>
<circle opacity="0.4" cx="22.7917" cy="8.62492" r="4.79167" fill="#768192"/>
</svg>
