<svg width="46" height="46" viewBox="0 0 46 46" fill="none" xmlns="http://www.w3.org/2000/svg">
<path d="M23.205 3.83325C12.0692 3.83325 4 12.9183 4 22.9999C4 26.2199 4.93917 29.5358 6.5875 32.5641C6.89417 33.0624 6.9325 33.6949 6.72167 34.2891L5.4375 38.5824C5.15 39.6174 6.03167 40.3841 7.00917 40.0774L10.8808 38.9274C11.935 38.5824 12.7592 39.0233 13.7386 39.6174C16.5369 41.2658 20.0233 42.1091 23.1667 42.1091C32.6733 42.1091 42.3333 34.7683 42.3333 22.9424C42.3333 12.7458 34.0917 3.83325 23.205 3.83325" fill="#768192"/>
<path fill-rule="evenodd" clip-rule="evenodd" d="M23.2899 25.4726C21.9291 25.4534 20.8366 24.3609 20.8366 23.0001C20.8366 21.6584 21.9483 20.5468 23.2899 20.5659C24.6508 20.5659 25.7433 21.6584 25.7433 23.0193C25.7433 24.3609 24.6508 25.4726 23.2899 25.4726ZM14.4533 25.4725C13.1117 25.4725 12 24.3608 12 23.0191C12 21.6583 13.0925 20.5658 14.4533 20.5658C15.8142 20.5658 16.9067 21.6583 16.9067 23.0191C16.9067 24.3608 15.8142 25.4533 14.4533 25.4725ZM29.672 23.0193C29.672 24.3609 30.7645 25.4726 32.1254 25.4726C33.4862 25.4726 34.5787 24.3609 34.5787 23.0193C34.5787 21.6584 33.4862 20.5659 32.1254 20.5659C30.7645 20.5659 29.672 21.6584 29.672 23.0193Z" fill="#161A22"/>
</svg>
