<svg width="46" height="46" viewBox="0 0 46 46" fill="none" xmlns="http://www.w3.org/2000/svg">
<path opacity="0.4" d="M28.8906 11.2746V11.6254C27.9501 11.6069 27.0097 11.6069 26.0692 11.6069V11.293C26.0692 10.019 24.9971 8.98494 23.718 8.98494H21.8559C19.7305 8.98494 18 7.28617 18 5.21811C18 4.46106 18.6395 3.83325 19.4107 3.83325C20.2007 3.83325 20.8214 4.46106 20.8214 5.21811C20.8214 5.77206 21.2916 6.21521 21.8559 6.21521H23.718C26.5582 6.23368 28.8718 8.50485 28.8906 11.2746" fill="#768192"/>
<path fill-rule="evenodd" clip-rule="evenodd" d="M29.231 11.6585C29.8349 11.6668 30.4403 11.6751 31.0478 11.6813C37.5746 11.6813 42.3333 16.3344 42.3333 22.7602V31.0139C42.3333 37.4397 37.5746 42.0928 31.0478 42.0928C28.4333 42.1482 25.8188 42.1667 23.1855 42.1667C20.5522 42.1667 17.9001 42.1482 15.2856 42.0928C8.75875 42.0928 4 37.4397 4 31.0139V22.7602C4 16.3344 8.75875 11.6813 15.3044 11.6813C17.7684 11.6444 20.2888 11.6074 22.8469 11.6074C23.7874 11.6074 24.7278 11.6074 25.6683 11.6259C26.854 11.6259 28.0398 11.6421 29.231 11.6585ZM20.966 28.2627H18.991V30.22C18.991 30.977 18.3515 31.6048 17.5803 31.6048C16.7903 31.6048 16.1696 30.977 16.1696 30.22V28.2627H14.1758C13.4046 28.2627 12.7651 27.6533 12.7651 26.8778C12.7651 26.1208 13.4046 25.493 14.1758 25.493H16.1696V23.5542C16.1696 22.7971 16.7903 22.1693 17.5803 22.1693C18.3515 22.1693 18.991 22.7971 18.991 23.5542V25.493H20.966C21.7372 25.493 22.3767 26.1208 22.3767 26.8778C22.3767 27.6533 21.7372 28.2627 20.966 28.2627ZM28.9599 25.1421H29.148C29.9192 25.1421 30.5587 24.5328 30.5587 23.7573C30.5587 23.0002 29.9192 22.3724 29.148 22.3724H28.9599C28.1699 22.3724 27.5492 23.0002 27.5492 23.7573C27.5492 24.5328 28.1699 25.1421 28.9599 25.1421ZM32.1763 31.494H32.3644C33.1356 31.494 33.7751 30.8847 33.7751 30.1092C33.7751 29.3521 33.1356 28.7243 32.3644 28.7243H32.1763C31.3863 28.7243 30.7656 29.3521 30.7656 30.1092C30.7656 30.8847 31.3863 31.494 32.1763 31.494Z" fill="#768192"/>
</svg>
