<svg width="37" height="38" viewBox="0 0 37 38" fill="none" xmlns="http://www.w3.org/2000/svg">
<path opacity="0.4" d="M24.7807 3.49829H30.0008C32.1626 3.49829 33.9143 5.26481 33.9143 7.4449V12.709C33.9143 14.8891 32.1626 16.6556 30.0008 16.6556H24.7807C22.6189 16.6556 20.8672 14.8891 20.8672 12.709V7.4449C20.8672 5.26481 22.6189 3.49829 24.7807 3.49829" fill="white"/>
<path fill-rule="evenodd" clip-rule="evenodd" d="M6.99559 3.49829H12.2156C14.3775 3.49829 16.1292 5.26481 16.1292 7.4449V12.709C16.1292 14.8891 14.3775 16.6556 12.2156 16.6556H6.99559C4.83376 16.6556 3.08203 14.8891 3.08203 12.709V7.4449C3.08203 5.26481 4.83376 3.49829 6.99559 3.49829ZM6.99559 21.1743H12.2156C14.3775 21.1743 16.1292 22.9408 16.1292 25.1209V30.385C16.1292 32.5636 14.3775 34.3316 12.2156 34.3316H6.99559C4.83376 34.3316 3.08203 32.5636 3.08203 30.385V25.1209C3.08203 22.9408 4.83376 21.1743 6.99559 21.1743ZM30.0018 21.1743H24.7818C22.6199 21.1743 20.8682 22.9408 20.8682 25.1209V30.385C20.8682 32.5636 22.6199 34.3316 24.7818 34.3316H30.0018C32.1636 34.3316 33.9154 32.5636 33.9154 30.385V25.1209C33.9154 22.9408 32.1636 21.1743 30.0018 21.1743Z" fill="#768192"/>
</svg>
