<svg width="46" height="46" viewBox="0 0 46 46" fill="none" xmlns="http://www.w3.org/2000/svg">
<path d="M12.048 9.51445L1.01523 20.5473C0.368358 21.1941 0 22.0836 0 23C0 23.9164 0.368358 24.8059 1.01523 25.4527L12.048 36.4855C12.623 37.0605 13.3957 37.375 14.2043 37.375C15.8844 37.375 17.25 36.0094 17.25 34.3293V28.75H28.75C30.3402 28.75 31.625 27.4652 31.625 25.875V20.125C31.625 18.5348 30.3402 17.25 28.75 17.25H17.25V11.6707C17.25 9.99062 15.8844 8.625 14.2043 8.625C13.3957 8.625 12.623 8.94844 12.048 9.51445ZM31.625 8.625H37.375C38.9652 8.625 40.25 9.90977 40.25 11.5V34.5C40.25 36.0902 38.9652 37.375 37.375 37.375H31.625C30.0348 37.375 28.75 38.6598 28.75 40.25C28.75 41.8402 30.0348 43.125 31.625 43.125H37.375C42.1367 43.125 46 39.2617 46 34.5V11.5C46 6.73828 42.1367 2.875 37.375 2.875H31.625C30.0348 2.875 28.75 4.15977 28.75 5.75C28.75 7.34023 30.0348 8.625 31.625 8.625Z" fill="#768192"/>
</svg>
