<svg width="9" height="17" viewBox="0 0 9 17" fill="none" xmlns="http://www.w3.org/2000/svg">
<path d="M0.377862 16.5807C0.125954 16.3012 0 15.9454 0 15.5135C0 15.0815 0.125954 14.7257 0.377862 14.4462L5.73664 8.5L0.377862 2.55381C0.125954 2.27429 0 1.91853 0 1.48655C0 1.05456 0.125954 0.698804 0.377862 0.419282C0.62977 0.13976 0.950381 0 1.33969 0C1.72901 0 2.04962 0.13976 2.30153 0.419282L8.62214 7.43273C8.75954 7.5852 8.8571 7.75037 8.91481 7.92825C8.9716 8.10613 9 8.29671 9 8.5C9 8.70329 8.9716 8.89387 8.91481 9.07175C8.8571 9.24963 8.75954 9.4148 8.62214 9.56726L2.30153 16.5807C2.04962 16.8602 1.72901 17 1.33969 17C0.950381 17 0.62977 16.8602 0.377862 16.5807Z" fill="white" fill-opacity="0.58"/>
</svg>
