<svg width="9" height="17" viewBox="0 0 9 17" fill="none" xmlns="http://www.w3.org/2000/svg">
<path d="M8.62214 16.5807C8.87405 16.3012 9 15.9454 9 15.5135C9 15.0815 8.87405 14.7257 8.62214 14.4462L3.26336 8.5L8.62214 2.55381C8.87405 2.27429 9 1.91853 9 1.48655C9 1.05456 8.87405 0.698804 8.62214 0.419282C8.37023 0.13976 8.04962 0 7.66031 0C7.27099 0 6.95038 0.13976 6.69847 0.419282L0.377864 7.43273C0.240459 7.5852 0.142901 7.75037 0.0851917 7.92825C0.0283976 8.10613 0 8.29671 0 8.5C0 8.70329 0.0283976 8.89387 0.0851917 9.07175C0.142901 9.24963 0.240459 9.4148 0.377864 9.56726L6.69847 16.5807C6.95038 16.8602 7.27099 17 7.66031 17C8.04962 17 8.37023 16.8602 8.62214 16.5807Z" fill="white" fill-opacity="0.58"/>
</svg>
