<svg width="46" height="46" viewBox="0 0 46 46" fill="none" xmlns="http://www.w3.org/2000/svg">
<path d="M17.9183 28.4773C10.321 28.4773 3.83203 29.6509 3.83203 34.3416C3.83203 39.036 10.2797 40.25 17.9183 40.25C25.5155 40.25 32.0045 39.0764 32.0045 34.3857C32.0045 29.6913 25.5568 28.4773 17.9183 28.4773" fill="#768192"/>
<path opacity="0.4" d="M17.9185 24.0059C23.0927 24.0059 27.2393 19.9452 27.2393 14.878C27.2393 9.81075 23.0927 5.75 17.9185 5.75C12.7461 5.75 8.59766 9.81075 8.59766 14.878C8.59766 19.9452 12.7461 24.0059 17.9185 24.0059" fill="#768192"/>
<path opacity="0.4" d="M30.998 15.0435C30.998 17.624 30.2066 20.0318 28.8188 22.0318C28.6744 22.2375 28.8019 22.5149 29.0532 22.5589C29.402 22.6159 29.7602 22.6508 30.126 22.6581C33.7643 22.7518 37.0293 20.4579 37.9314 17.0032C39.2686 11.8772 35.3452 7.27466 30.3472 7.27466C29.8053 7.27466 29.2858 7.32976 28.7794 7.43077C28.71 7.44546 28.635 7.47852 28.5975 7.53729C28.5487 7.61259 28.5844 7.70993 28.6331 7.77422C30.1353 9.83673 30.998 12.3474 30.998 15.0435" fill="#768192"/>
<path d="M41.7434 29.0747C41.0776 27.6844 39.4704 26.7312 37.0248 26.2628C35.8714 25.9873 32.747 25.5961 29.842 25.6512C29.7989 25.6567 29.7745 25.6861 29.7707 25.7045C29.7651 25.7339 29.7782 25.778 29.8345 25.8092C31.1773 26.4593 36.3666 29.2877 35.7139 35.253C35.6858 35.5138 35.8977 35.7342 36.1621 35.6975C37.4393 35.5193 40.725 34.8269 41.7434 32.6744C42.3079 31.5357 42.3079 30.2134 41.7434 29.0747" fill="#768192"/>
</svg>
