<svg width="48" height="42" viewBox="0 0 48 42" fill="none" xmlns="http://www.w3.org/2000/svg">
<path d="M33.3333 0H14.6667C12.4583 0 10.6583 1.78828 10.7417 3.95391C10.7583 4.38867 10.775 4.82344 10.8 5.25H2C0.891667 5.25 0 6.12773 0 7.21875C0 14.8148 2.79167 20.0977 6.54167 23.6824C10.2333 27.218 14.7333 28.998 18.05 29.9004C20 30.4336 21.3333 32.0332 21.3333 33.641C21.3333 35.3555 19.9167 36.75 18.175 36.75H16C14.525 36.75 13.3333 37.923 13.3333 39.375C13.3333 40.827 14.525 42 16 42H32C33.475 42 34.6667 40.827 34.6667 39.375C34.6667 37.923 33.475 36.75 32 36.75H29.825C28.0833 36.75 26.6667 35.3555 26.6667 33.641C26.6667 32.0332 27.9917 30.4254 29.95 29.9004C33.275 28.998 37.775 27.218 41.4667 23.6824C45.2083 20.0977 48 14.8148 48 7.21875C48 6.12773 47.1083 5.25 46 5.25H37.2C37.225 4.82344 37.2417 4.39688 37.2583 3.95391C37.3417 1.78828 35.5417 0 33.3333 0ZM4.075 9.1875H11.1083C11.8667 16.5785 13.5417 21.5168 15.4333 24.8227C13.3583 23.9203 11.2 22.6488 9.33333 20.8605C6.66667 18.3094 4.5 14.6262 4.08333 9.1875H4.075ZM38.675 20.8605C36.8083 22.6488 34.65 23.9203 32.575 24.8227C34.4667 21.5168 36.1417 16.5785 36.9 9.1875H43.9333C43.5083 14.6262 41.3417 18.3094 38.6833 20.8605H38.675Z" fill="#768192"/>
</svg>
